<?xml version="1.0" encoding="UTF-8"?>
<svg xmlns="http://www.w3.org/2000/svg" viewBox="0 0 200 200">
  <path d="M104.8,176.6c-29.5,0-55.5-11.4-75-32.9-2-2.2-2.7-5.5-1.6-8.3,5.1-13.8,19-46,36.8-46.1h0c8.9,0,15.6,7.1,21,12.8,1.6,1.7,4.1,4.3,5.7,5.6,4.1-4.1,12.3-17.7,18.6-31.3,1.9-4.1,6.7-5.8,10.8-4,4.1,1.9,5.9,6.7,4,10.8-19.2,41.4-29.4,41.4-32.8,41.4-7.5,0-12.9-5.7-18.2-11.3-2.4-2.5-7.2-7.7-9.1-7.7h0c-4.2.7-13.2,15-19.8,30.8,16.1,15.9,36.1,24,59.5,24s56.3-8.8,66.7-24.1c-3.6-40.9-26.1-96.4-66.7-96.4S44.6,63.6,27.9,110.8c-1.5,4.2-6.2,6.5-10.4,5-4.2-1.5-6.5-6.2-5-10.4C31.8,51,62.8,23.4,104.8,23.4s80.1,70,83.1,114.2c.1,1.6-.3,3.2-1.1,4.6-12.8,22.1-41.9,34.3-82.1,34.3h0Z"/>
  <path fill="#ffe000" d="M104.8,23.4c54.8,0,80.1,70,83.1,114.2.1,1.6-.3,3.2-1.1,4.6-12.8,22.1-41.9,34.3-82.1,34.3h0c-29.5,0-55.5-11.4-75-32.9-2-2.2-2.7-5.5-1.6-8.3,5.1-13.8,19-46,36.8-46.1h0c8.9,0,15.6,7.1,21,12.8,1.6,1.7,4.1,4.3,5.7,5.6,4.1-4.1,12.3-17.7,18.6-31.3,1.4-3,4.3-4.7,7.4-4.7s2.3.2,3.4.8c4.1,1.9,5.9,6.7,4,10.8-19.2,41.4-29.4,41.4-32.8,41.4-7.5,0-12.9-5.7-18.2-11.3-2.4-2.5-7.2-7.7-9.1-7.7h0c-4.2.7-13.2,15-19.8,30.8,16.1,15.9,36.1,24,59.5,24s56.3-8.8,66.7-24.1c-3.6-40.9-26.1-96.4-66.7-96.4S44.6,63.6,27.9,110.8c-1.2,3.3-4.3,5.4-7.7,5.4s-1.8-.2-2.7-.5c-4.2-1.5-6.5-6.2-5-10.4C31.8,51,62.8,23.4,104.8,23.4"/></svg>